<svg width="158" height="28" viewBox="0 0 158 28" fill="none" xmlns="http://www.w3.org/2000/svg">
<path d="M137.878 20.4803C137.876 20.6151 137.82 20.7436 137.724 20.8381C137.628 20.9325 137.499 20.9855 137.364 20.9855C137.229 20.9855 137.1 20.9325 137.003 20.8381C136.907 20.7436 136.852 20.6151 136.85 20.4803C136.848 20.4121 136.861 20.3442 136.886 20.2808C136.911 20.2173 136.949 20.1596 136.997 20.1109C137.045 20.0622 137.102 20.0235 137.165 19.9971C137.228 19.9706 137.296 19.957 137.364 19.957C137.432 19.957 137.5 19.9706 137.563 19.9971C137.626 20.0235 137.683 20.0622 137.731 20.1109C137.779 20.1596 137.816 20.2173 137.841 20.2808C137.867 20.3442 137.879 20.4121 137.878 20.4803Z" fill="white"/>
<path d="M143.321 19.2413C143.096 20.437 142.076 21.0222 141.055 21.0305C139.877 21.0466 138.689 20.2697 138.689 18.6978C138.689 17.1344 139.86 16.3652 141.039 16.3652C142.068 16.3652 143.096 16.9588 143.322 18.1628H142.477C142.394 17.8496 142.208 17.5735 141.948 17.3793C141.689 17.1851 141.372 17.084 141.048 17.0925C140.287 17.0925 139.509 17.6193 139.509 18.6978C139.509 19.7848 140.278 20.3116 141.056 20.3116C141.379 20.3199 141.695 20.2186 141.953 20.0243C142.211 19.8299 142.396 19.554 142.477 19.2413H143.321Z" fill="white"/>
<path d="M146.464 21.0473C145.251 21.0473 144.039 20.2614 144.039 18.7063C144.039 17.1428 145.26 16.3652 146.489 16.3652C147.71 16.3652 148.914 17.1511 148.914 18.7063C148.914 20.2697 147.693 21.0473 146.464 21.0473ZM146.464 20.3116C147.283 20.32 148.102 19.7764 148.102 18.7063C148.102 17.6362 147.291 17.0925 146.489 17.0925C145.67 17.0925 144.859 17.6277 144.859 18.7063C144.859 19.7681 145.661 20.3032 146.464 20.3116Z" fill="white"/>
<path d="M150.961 16.3654V17.0008C151.1 16.7937 151.29 16.6263 151.513 16.5149C151.736 16.4035 151.984 16.3519 152.233 16.3654C152.868 16.3654 153.437 16.5158 153.771 17.1513C154.047 16.6496 154.557 16.3737 155.218 16.3654C156.463 16.3654 157.007 17.2433 157.007 18.3886V20.9637H156.187V18.3976C156.187 17.7622 156.029 17.1261 155.243 17.1261C154.44 17.1261 154.039 17.678 154.039 18.4137V20.9639H153.219V18.4221C153.219 17.7867 152.977 17.1261 152.224 17.1261C151.505 17.1261 150.962 17.6194 150.962 18.5058V20.9639H150.143V16.3654H150.961Z" fill="white"/>
<path d="M0 20.1663C0.987124 18.7508 1.97423 17.3351 2.96136 15.9195C5.77058 11.8704 8.57957 7.82119 11.3883 3.77173C11.6903 3.33718 12.0415 2.93739 12.3557 2.53938H2.92336V6.01851H0.198273V0H16.232C16.232 0.458369 16.2098 0.914164 16.2383 1.36674C16.264 1.79279 16.1354 2.21386 15.8761 2.5529C12.1948 7.8486 8.52139 13.1497 4.85583 18.4561C4.59623 18.8306 4.28305 19.1678 3.99496 19.5225C3.95102 19.5766 3.90788 19.6312 3.8662 19.6823H13.7879V16.0828H16.5187V22.2396H0V20.1663Z" fill="#C8A45D"/>
<path d="M88.1216 14.2396C88.0996 12.3156 88.7572 10.4456 89.9785 8.9588C91.1999 7.47201 92.9067 6.46389 94.7984 6.11197C97.7327 5.53708 100.414 6.12227 102.677 8.14518C104.548 9.81899 105.414 11.9756 105.321 14.465C105.196 17.815 103.604 20.2858 100.585 21.7612C97.0764 23.4756 92.7164 22.6113 90.1543 19.7296C88.7683 18.1715 88.1377 16.3149 88.1216 14.2396ZM96.4857 19.9646C98.0884 19.9533 99.3013 19.5259 100.309 18.6101C102.574 16.5527 102.861 13.0152 100.98 10.5898C98.8553 7.84968 94.4516 7.8962 92.3968 10.6836C91.3843 12.0571 91.0853 13.5947 91.3301 15.2687C91.7255 17.9747 94.0046 19.9677 96.4857 19.9646Z" fill="white"/>
<path d="M61.1185 12.448C61.1399 11.5556 61.1295 10.6808 60.6815 9.88337C60.1487 8.93509 59.2652 8.56878 58.2395 8.48814C56.4745 8.34941 54.8935 8.90306 53.4176 9.82286C53.332 9.87629 53.2477 9.93165 53.144 9.99828C52.7349 9.27484 52.3321 8.56218 51.8963 7.79126C52.4203 7.50011 52.9141 7.17967 53.4437 6.93954C55.6632 5.93058 57.9732 5.62607 60.3482 6.24748C62.4022 6.78503 63.5956 8.18219 63.9925 10.245C64.1118 10.9057 64.1714 11.5757 64.1707 12.247C64.1919 14.5065 64.1785 16.7661 64.179 19.0258C64.179 19.7254 64.3606 19.9078 65.0555 19.9087C65.5199 19.9096 65.9842 19.9087 66.4638 19.9087V22.2531C66.391 22.2582 66.3115 22.2691 66.232 22.2691C65.2517 22.2701 64.2712 22.2767 63.2909 22.265C63.0208 22.263 62.7518 22.2292 62.4896 22.1641C62.1505 22.0979 61.8463 21.9124 61.6322 21.6412C61.4181 21.3701 61.3083 21.0312 61.3226 20.6859C61.315 20.2318 61.3591 19.7769 61.3812 19.298C61.3311 19.3858 61.283 19.4673 61.2376 19.5502C59.3452 23.0097 55.4674 23.2953 52.9918 21.8172C51.4688 20.9079 50.7994 19.5059 50.8208 17.7558C50.8466 15.6582 52.0034 14.3549 53.8203 13.5302C55.0727 12.9868 56.4104 12.6667 57.7731 12.5845C58.8048 12.5029 59.8426 12.501 60.8774 12.4633C60.95 12.4602 61.0224 12.4541 61.1185 12.448ZM61.1507 14.4735C61.1062 14.4614 61.0607 14.4536 61.0147 14.45C59.9536 14.5017 58.8883 14.5144 57.8324 14.62C56.8799 14.6957 55.9576 14.9896 55.1369 15.4789C54.2248 16.044 53.7867 16.8611 53.9312 17.934C54.0724 18.982 54.6434 19.7373 55.652 20.0842C56.2258 20.2952 56.8451 20.3506 57.4472 20.2449C58.0493 20.1392 58.6127 19.876 59.0802 19.4821C60.684 18.2142 61.2223 16.4776 61.1505 14.4735H61.1507Z" fill="white"/>
<path d="M47.6745 14.5514H36.0297C36.0514 15.4018 36.2553 16.2376 36.6276 17.0024C37.6723 19.058 39.4081 19.9688 41.661 19.9564C43.2865 19.9474 44.7155 19.3427 46.0152 18.399C46.1042 18.3346 46.1922 18.2681 46.3039 18.1852C46.7062 18.898 47.1038 19.5916 47.482 20.2954C47.5116 20.3507 47.4305 20.5122 47.3578 20.569C46.223 21.4599 44.8987 22.0781 43.487 22.3759C41.2593 22.8534 39.0958 22.6778 37.0737 21.5728C34.7548 20.3057 33.4274 18.3056 33.0195 15.7186C32.675 13.5318 32.9828 11.4275 34.1548 9.51644C35.4274 7.44123 37.3282 6.304 39.7245 5.98823C41.1649 5.79848 42.5796 5.91178 43.9185 6.52095C45.8104 7.38152 46.9121 8.9047 47.454 10.8632C47.7937 12.0622 47.8689 13.3206 47.6745 14.5514ZM36.1438 12.5781H44.6288C44.6003 12.2993 44.5861 12.0399 44.5452 11.7845C44.3957 10.851 44.0624 9.99284 43.3559 9.33989C42.0864 8.16709 40.606 8.08227 39.0762 8.67358C37.3221 9.35164 36.4988 10.7815 36.1438 12.5781Z" fill="white"/>
<path d="M133.07 11.0344H130.4C130.4 10.7447 130.387 10.4582 130.403 10.1733C130.433 9.6081 130.172 9.2059 129.718 8.91202C129.051 8.47908 128.298 8.36594 127.522 8.37109C126.951 8.36155 126.384 8.47776 125.863 8.71149C124.558 9.32661 124.344 10.8244 125.486 11.7028C126.021 12.0904 126.605 12.4064 127.221 12.6429C128.358 13.1119 129.53 13.4917 130.669 13.9538C131.466 14.2621 132.179 14.7513 132.754 15.3828C134.222 17.0357 133.97 19.7209 132.228 21.1304C131.136 22.0146 129.857 22.4053 128.491 22.5538C126.852 22.7543 125.19 22.5351 123.659 21.9168C123.04 21.6741 122.474 21.3155 121.99 20.8604C121.711 20.6107 121.486 20.3064 121.328 19.9664C121.171 19.6263 121.085 19.2577 121.075 18.8832C121.065 18.2976 121.073 17.7118 121.073 17.1118H123.743C123.743 17.374 123.756 17.6313 123.741 17.8871C123.695 18.6612 124.066 19.1843 124.718 19.5414C125.315 19.8536 125.971 20.0393 126.643 20.087C127.571 20.1742 128.491 20.1442 129.365 19.7651C130.218 19.395 130.663 18.7512 130.617 17.9626C130.612 17.6894 130.539 17.4217 130.404 17.1839C130.27 16.9461 130.078 16.7458 129.846 16.601C129.274 16.2541 128.676 15.951 128.058 15.6942C126.899 15.2057 125.711 14.7889 124.558 14.2885C123.745 13.9458 123.029 13.4069 122.475 12.7201C121.133 11.0368 121.492 8.439 123.237 7.16964C124.219 6.47702 125.369 6.06271 126.566 5.97061C128.26 5.80065 129.905 5.99668 131.434 6.79319C131.8 6.99794 132.137 7.25024 132.436 7.54351C132.624 7.7143 132.776 7.92056 132.884 8.1504C132.991 8.38025 133.052 8.62914 133.064 8.88273C133.094 9.58863 133.07 10.2971 133.07 11.0344Z" fill="white"/>
<path d="M81.8123 8.6421C81.8012 8.73754 81.7911 8.78292 81.7912 8.82847C81.7977 11.4243 81.779 14.0207 81.8242 16.6159C81.8437 17.7264 82.2528 18.7003 83.2639 19.3088C83.8613 19.6453 84.5413 19.807 85.2263 19.7756C85.4406 19.774 85.655 19.7756 85.8919 19.7756V22.3537C85.3989 22.3537 84.9074 22.3665 84.4169 22.351C83.3959 22.3378 82.3909 22.0965 81.4753 21.6446C79.9193 20.85 79.1162 19.5202 78.8503 17.8391C78.773 17.3223 78.735 16.8004 78.7365 16.2779C78.7251 13.8594 78.7314 11.4408 78.7314 9.02209V8.65755H76.0703V6.28507H78.7842V1.92188H81.7894V6.27606H85.5868V8.64194L81.8123 8.6421Z" fill="white"/>
<path d="M19.5723 8.64974V6.32297C19.6008 6.30688 19.6164 6.29078 19.6321 6.29078C20.9482 6.29722 22.2665 6.26262 23.5798 6.32603C24.6742 6.37882 25.1807 6.96868 25.2026 8.07082C25.2145 8.67694 25.1838 9.28387 25.1712 9.89046C25.1636 9.99906 25.167 10.1081 25.1813 10.216C25.7929 8.55832 26.7425 7.20044 28.4123 6.47377C29.2346 6.11699 30.1436 6.0096 31.0265 6.16493V9.17893C30.2313 9.02018 29.408 9.08065 28.6445 9.35387C27.4424 9.79808 26.6649 10.6879 26.1208 11.8067C25.5295 13.0218 25.3086 14.3214 25.2999 15.6613C25.2914 16.9873 25.2974 18.3135 25.2983 19.6397C25.2983 19.7121 25.3115 19.7845 25.3206 19.877H27.6464V22.2225H19.8576V19.8888H22.2434V19.5498C22.2434 16.2065 22.2434 12.8632 22.2434 9.51997C22.2434 8.83467 22.0642 8.65264 21.3843 8.64974C20.7885 8.64781 20.1914 8.64974 19.5723 8.64974Z" fill="white"/>
<path d="M115.851 22.226H108.06V19.8964H110.432C110.438 19.7707 110.446 19.673 110.446 19.5745C110.447 16.2126 110.447 12.8505 110.446 9.48841C110.446 8.84254 110.258 8.65311 109.613 8.64925C109.007 8.64555 108.402 8.64844 107.762 8.64844V6.32779C107.805 6.30478 107.821 6.28884 107.837 6.289C109.144 6.2948 110.453 6.25681 111.757 6.32264C112.888 6.37977 113.387 6.96851 113.408 8.10011C113.421 8.79925 113.41 9.49887 113.41 10.1645C114.421 7.5545 116.144 5.88439 119.229 6.1316V9.17731C118.322 8.99162 117.378 9.09869 116.535 9.4831C115.303 10.0643 114.584 11.0979 114.099 12.3207C113.687 13.4056 113.484 14.5587 113.501 15.719C113.497 17.0172 113.5 18.3152 113.501 19.6139C113.501 19.6955 113.513 19.7771 113.52 19.8782H115.851L115.851 22.226Z" fill="white"/>
<path d="M69.0877 2.34045H66.457V0H72.1384V0.375322C72.1384 6.01513 72.1403 11.6548 72.1443 17.2944C72.1398 17.7604 72.187 18.2255 72.2851 18.6811C72.4472 19.3881 72.9307 19.7433 73.6575 19.7712C73.9918 19.7839 74.3267 19.7733 74.6819 19.7733C74.6819 20.2722 74.6839 20.7639 74.6819 21.2557C74.6803 21.5358 74.6819 21.8168 74.6574 22.0952C74.6475 22.1377 74.627 22.1769 74.5979 22.2094C74.5688 22.2418 74.532 22.2665 74.4909 22.281C73.6619 22.3429 72.8332 22.383 72.0091 22.2097C70.3553 21.8614 69.4947 20.7723 69.2193 19.1723C69.1309 18.6198 69.0889 18.0609 69.0939 17.5014C69.0846 12.5807 69.0828 7.65993 69.0884 2.73911L69.0877 2.34045Z" fill="white"/>
<path d="M16.5188 24.7617H0V27.3008H16.5188V24.7617Z" fill="#C8A45D"/>
</svg>
