<svg width="40" height="40" viewBox="0 0 40 40" fill="none" xmlns="http://www.w3.org/2000/svg">
<rect width="40" height="40" rx="10" fill="#152C5B"/>
<g clip-path="url(#clip0_85_9130)">
<path d="M12.5 19C11.67 19 11 19.67 11 20.5C11 21.33 11.67 22 12.5 22C13.33 22 14 21.33 14 20.5C14 19.67 13.33 19 12.5 19ZM12.5 13C11.67 13 11 13.67 11 14.5C11 15.33 11.67 16 12.5 16C13.33 16 14 15.33 14 14.5C14 13.67 13.33 13 12.5 13ZM12.5 25C11.67 25 11 25.68 11 26.5C11 27.32 11.68 28 12.5 28C13.32 28 14 27.32 14 26.5C14 25.68 13.33 25 12.5 25ZM15.5 27.5H29.5V25.5H15.5V27.5ZM15.5 21.5H29.5V19.5H15.5V21.5ZM15.5 13.5V15.5H29.5V13.5H15.5Z" fill="white"/>
</g>
<defs>
<clipPath id="clip0_85_9130">
<rect width="24" height="24" fill="white" transform="translate(8 8)"/>
</clipPath>
</defs>
</svg>
