<svg width="12" height="17" viewBox="0 0 12 17" fill="none" xmlns="http://www.w3.org/2000/svg">
<path d="M5.99998 3.79492C5.56328 3.79492 5.13639 3.92442 4.77329 4.16703C4.41019 4.40965 4.12718 4.75449 3.96007 5.15795C3.79295 5.5614 3.74922 6.00536 3.83442 6.43366C3.91961 6.86197 4.1299 7.2554 4.4387 7.56419C4.74749 7.87298 5.14091 8.08327 5.56922 8.16847C5.99753 8.25366 6.44148 8.20994 6.84494 8.04282C7.24839 7.8757 7.59323 7.5927 7.83585 7.2296C8.07847 6.8665 8.20796 6.4396 8.20796 6.00291C8.2073 5.41752 7.97446 4.85629 7.56052 4.44236C7.14659 4.02843 6.58537 3.79559 5.99998 3.79492ZM5.99998 7.1069C5.78163 7.1069 5.56818 7.04215 5.38663 6.92084C5.20508 6.79953 5.06358 6.62711 4.98002 6.42539C4.89646 6.22366 4.8746 6.00168 4.9172 5.78753C4.9598 5.57337 5.06494 5.37666 5.21934 5.22227C5.37373 5.06787 5.57045 4.96272 5.7846 4.92013C5.99875 4.87753 6.22073 4.89939 6.42246 4.98295C6.62419 5.06651 6.79661 5.20801 6.91791 5.38956C7.03922 5.57111 7.10397 5.78456 7.10397 6.00291C7.10363 6.2956 6.98721 6.57621 6.78024 6.78317C6.57328 6.99014 6.29267 7.10656 5.99998 7.1069Z" fill="#737680"/>
<path d="M10.2426 1.75691C9.19353 0.708127 7.79318 0.0851102 6.3118 0.00809763C4.83042 -0.068915 3.37301 0.405536 2.22087 1.33988C1.06873 2.27423 0.303529 3.60223 0.0729495 5.06758C-0.15763 6.53294 0.16276 8.03176 0.972283 9.27478L5.14355 15.6784C5.23637 15.8209 5.36329 15.938 5.5128 16.019C5.66231 16.1 5.82968 16.1425 5.99974 16.1425C6.1698 16.1425 6.33718 16.1 6.48669 16.019C6.6362 15.938 6.76312 15.8209 6.85594 15.6784L11.0273 9.27478C11.7785 8.1217 12.1104 6.74546 11.9676 5.37674C11.8247 4.00802 11.2157 2.73 10.2426 1.75691V1.75691ZM10.1023 8.67218L5.99976 14.9701L1.89715 8.67218C0.641361 6.74436 0.910701 4.16447 2.53757 2.53753C2.99223 2.08286 3.53199 1.7222 4.12603 1.47613C4.72008 1.23007 5.35677 1.10342 5.99976 1.10342C6.64275 1.10342 7.27945 1.23007 7.87349 1.47613C8.46753 1.7222 9.00729 2.08286 9.46195 2.53753C11.0888 4.16447 11.3581 6.74436 10.1023 8.67218Z" fill="#737680"/>
</svg>
